<svg xmlns="http://www.w3.org/2000/svg" width="256" height="256"><path fill-opacity=".016" d="M0 128.004v128.004l128.25-.254 128.25-.254.254-127.75L257.008 0H0v128.004m.485.496c0 70.4.119 99.053.265 63.672.146-35.38.146-92.98 0-128C.604 29.153.485 58.1.485 128.5" fill="#2c5364" fill-rule="evenodd"/><path fill-opacity=".227" d="M44.429 6.893C39.607 9.083 34.346 15.108 32.985 20c-.603 2.168-.976 43.383-.979 108.282-.005 92.476.176 105.219 1.547 108.5 1.958 4.688 5.884 8.855 10.657 11.31C47.77 249.923 51.164 250 128 250c76.836 0 80.23-.077 83.79-1.908 4.773-2.455 8.699-6.622 10.657-11.31 1.371-3.281 1.552-16.024 1.547-108.5-.003-64.899-.376-106.114-.979-108.282-1.361-4.892-6.622-10.917-11.444-13.107C207.72 5.144 203.2 5.044 128 5.044s-79.72.1-83.571 1.849" fill="#2c5364" fill-rule="evenodd"/><path fill-opacity=".17" d="M57.367 6.772c-1.173.951-2.636 2.711-3.25 3.912-1.284 2.511-1.645 153.319-.367 153.312.413-.003 6.375-4.501 13.25-9.996s12.725-9.992 13-9.992c.275 0 6.125 4.497 13 9.992 6.875 5.495 12.838 9.993 13.25 9.996 1.278.007.917-150.801-.367-153.312-2.768-5.412-3.814-5.64-25.883-5.64-17.934 0-20.767.217-22.633 1.728M32.444 229.5c.867 8.542 4.55 14.232 11.49 17.75l5.425 2.75h157.282l5.425-2.75c6.94-3.518 10.623-9.208 11.49-17.75l.609-6-2.654 4.5c-3.447 5.845-6.867 8.615-12.943 10.483-7.394 2.275-153.742 2.275-161.136 0-6.076-1.868-9.496-4.638-12.943-10.483l-2.654-4.5.609 6" fill="#2c5364" fill-rule="evenodd"/><path fill-opacity=".348" d="M59 6.273c-5.594 2.781-5.545 2.022-5 77.575l.5 69.348 12.75-10.191L80 132.813l12.75 10.192 12.75 10.191.5-69.348c.545-75.553.594-74.794-5-77.575-3.483-1.732-38.517-1.732-42 0" fill="#2c5364" fill-rule="evenodd"/></svg>